<svg xmlns="http://www.w3.org/2000/svg" width="800" height="400" viewBox="0 0 800 400">
  <defs>
    <linearGradient id="bg" x1="0%" y1="0%" x2="100%" y2="100%">
      <stop offset="0%" style="stop-color:#059669;stop-opacity:1" />
      <stop offset="100%" style="stop-color:#065f46;stop-opacity:1" />
    </linearGradient>
  </defs>
  
  <!-- Background -->
  <rect width="800" height="400" fill="url(#bg)"/>
  
  <!-- Decorative elements -->
  <circle cx="120" cy="80" r="40" fill="#10b981" opacity="0.3"/>
  <circle cx="680" cy="320" r="60" fill="#10b981" opacity="0.2"/>
  
  <!-- Main content -->
  <g transform="translate(400, 200)">
    <!-- Recycle symbol -->
    <g transform="translate(-50, -60)">
      <path d="M25 10 L35 30 L15 30 Z" fill="#ffffff" opacity="0.9"/>
      <path d="M45 30 L55 50 L35 50 Z" fill="#ffffff" opacity="0.9"/>
      <path d="M5 30 L15 50 L-5 50 Z" fill="#ffffff" opacity="0.9"/>
      
      <!-- Arrows -->
      <path d="M30 25 Q40 15 50 25" stroke="#ffffff" stroke-width="2" fill="none"/>
      <path d="M50 35 Q55 45 45 50" stroke="#ffffff" stroke-width="2" fill="none"/>
      <path d="M15 45 Q5 40 10 30" stroke="#ffffff" stroke-width="2" fill="none"/>
    </g>
    
    <!-- Text -->
    <text x="0" y="20" text-anchor="middle" font-family="Arial, sans-serif" font-size="36" font-weight="bold" fill="#ffffff">
      BANK SAMPAH
    </text>
    <text x="0" y="50" text-anchor="middle" font-family="Arial, sans-serif" font-size="24" fill="#ffffff" opacity="0.9">
      CELUK - SUKAWATI
    </text>
    <text x="0" y="80" text-anchor="middle" font-family="Arial, sans-serif" font-size="18" fill="#ffffff" opacity="0.8">
      Jaha Pura Dalam Celuk
    </text>
  </g>
  
  <!-- Date banner -->
  <rect x="550" y="20" width="220" height="60" rx="10" fill="#ffffff" opacity="0.9"/>
  <text x="660" y="40" text-anchor="middle" font-family="Arial, sans-serif" font-size="14" font-weight="bold" fill="#065f46">
    Minggu, 19 Oktober 2025
  </text>
  <text x="660" y="60" text-anchor="middle" font-family="Arial, sans-serif" font-size="12" fill="#065f46">
    08.00 - 11.00 WITA
  </text>
</svg>